<svg xmlns="http://www.w3.org/2000/svg" version="1.1" xmlns:xlink="http://www.w3.org/1999/xlink" xmlns:svgjs="http://svgjs.dev/svgjs" width="1440" height="640" preserveAspectRatio="none" viewBox="0 0 1440 640"><g mask="url(&quot;#SvgjsMask1046&quot;)" fill="none"><rect width="1440" height="640" x="0" y="0" fill="rgba(11, 12, 16, 1)"></rect><path d="M-140 54.66 a194.66 194.66 0 1 0 389.32 0 a194.66 194.66 0 1 0 -389.32 0z" fill="rgba(28, 83, 142, 0.4)" class="triangle-float2"></path><path d="M-50.22 -35.11 a15.11 15.11 0 1 0 30.22 0 a15.11 15.11 0 1 0 -30.22 0z" fill="rgba(28, 83, 142, 0.4)" class="triangle-float1"></path><path d="M-138.97 53.64 a192.61 192.61 0 1 0 385.22 0 a192.61 192.61 0 1 0 -385.22 0z" fill="rgba(28, 83, 142, 0.4)" class="triangle-float1"></path><path d="M1245.09 -18.41 a48.5 48.5 0 1 0 97 0 a48.5 48.5 0 1 0 -97 0z" fill="rgba(28, 83, 142, 0.4)" class="triangle-float2"></path></g><defs><mask id="SvgjsMask1046"><rect width="1440" height="640" fill="#ffffff"></rect></mask><style>
                @keyframes float1 {
                    0%{transform: translate(0, 0)}
                    50%{transform: translate(-10px, 0)}
                    100%{transform: translate(0, 0)}
                }

                .triangle-float1 {
                    animation: float1 5s infinite;
                }

                @keyframes float2 {
                    0%{transform: translate(0, 0)}
                    50%{transform: translate(-5px, -5px)}
                    100%{transform: translate(0, 0)}
                }

                .triangle-float2 {
                    animation: float2 4s infinite;
                }

                @keyframes float3 {
                    0%{transform: translate(0, 0)}
                    50%{transform: translate(0, -10px)}
                    100%{transform: translate(0, 0)}
                }

                .triangle-float3 {
                    animation: float3 6s infinite;
                }
            </style></defs></svg>