<svg id="visual" viewBox="0 0 900 200" width="900" height="200" xmlns="http://www.w3.org/2000/svg" xmlns:xlink="http://www.w3.org/1999/xlink" version="1.1"><rect x="0" y="0" width="900" height="200" fill="#0b0c10"></rect><path d="M0 132L25 119C50 106 100 80 150 85.2C200 90.3 250 126.7 300 129C350 131.3 400 99.7 450 82.3C500 65 550 62 600 78.8C650 95.7 700 132.3 750 127.3C800 122.3 850 75.7 875 52.3L900 29L900 201L875 201C850 201 800 201 750 201C700 201 650 201 600 201C550 201 500 201 450 201C400 201 350 201 300 201C250 201 200 201 150 201C100 201 50 201 25 201L0 201Z" fill="#0066FF" stroke-linecap="round" stroke-linejoin="miter"></path></svg>