<svg xmlns="http://www.w3.org/2000/svg" version="1.1" xmlns:xlink="http://www.w3.org/1999/xlink" xmlns:svgjs="http://svgjs.dev/svgjs" width="1440" height="640" preserveAspectRatio="none" viewBox="0 0 1440 640"><g mask="url(&quot;#SvgjsMask1045&quot;)" fill="none"><rect width="1440" height="640" x="0" y="0" fill="rgba(31, 40, 51, 1)"></rect><path d="M-140 54.66 a194.66 194.66 0 1 0 389.32 0 a194.66 194.66 0 1 0 -389.32 0z" fill="rgba(28, 83, 142, 0.4)" class="triangle-float3"></path><path d="M-50.22 -35.11 a15.11 15.11 0 1 0 30.22 0 a15.11 15.11 0 1 0 -30.22 0z" fill="rgba(28, 83, 142, 0.4)" class="triangle-float3"></path><path d="M-138.97 53.64 a192.61 192.61 0 1 0 385.22 0 a192.61 192.61 0 1 0 -385.22 0z" fill="rgba(28, 83, 142, 0.4)" class="triangle-float1"></path><path d="M1245.09 -18.41 a48.5 48.5 0 1 0 97 0 a48.5 48.5 0 1 0 -97 0z" fill="rgba(28, 83, 142, 0.4)" class="triangle-float2"></path><path d="M1162.83 63.84 a213.01 213.01 0 1 0 426.02 0 a213.01 213.01 0 1 0 -426.02 0z" fill="rgba(28, 83, 142, 0.4)" class="triangle-float3"></path><path d="M1202.73 23.93 a133.2 133.2 0 1 0 266.4 0 a133.2 133.2 0 1 0 -266.4 0z" fill="rgba(28, 83, 142, 0.4)" class="triangle-float3"></path><path d="M-74.05 500.71 a62.76 62.76 0 1 0 125.52 0 a62.76 62.76 0 1 0 -125.52 0z" fill="rgba(28, 83, 142, 0.4)" class="triangle-float3"></path><path d="M-99.16 525.83 a112.99 112.99 0 1 0 225.98 0 a112.99 112.99 0 1 0 -225.98 0z" fill="rgba(28, 83, 142, 0.4)" class="triangle-float1"></path><path d="M-149.14 575.81 a212.95 212.95 0 1 0 425.9 0 a212.95 212.95 0 1 0 -425.9 0z" fill="rgba(28, 83, 142, 0.4)" class="triangle-float2"></path><path d="M1199.54 539.12 a139.58 139.58 0 1 0 279.16 0 a139.58 139.58 0 1 0 -279.16 0z" fill="rgba(28, 83, 142, 0.4)" class="triangle-float1"></path><path d="M1210.69 527.99 a117.3 117.3 0 1 0 234.6 0 a117.3 117.3 0 1 0 -234.6 0z" fill="rgba(28, 83, 142, 0.4)" class="triangle-float2"></path><path d="M1172.3 566.36 a194.06 194.06 0 1 0 388.12 0 a194.06 194.06 0 1 0 -388.12 0z" fill="rgba(28, 83, 142, 0.4)" class="triangle-float1"></path></g><defs><mask id="SvgjsMask1045"><rect width="1440" height="640" fill="#ffffff"></rect></mask><style>
                @keyframes float1 {
                    0%{transform: translate(0, 0)}
                    50%{transform: translate(-10px, 0)}
                    100%{transform: translate(0, 0)}
                }

                .triangle-float1 {
                    animation: float1 5s infinite;
                }

                @keyframes float2 {
                    0%{transform: translate(0, 0)}
                    50%{transform: translate(-5px, -5px)}
                    100%{transform: translate(0, 0)}
                }

                .triangle-float2 {
                    animation: float2 4s infinite;
                }

                @keyframes float3 {
                    0%{transform: translate(0, 0)}
                    50%{transform: translate(0, -10px)}
                    100%{transform: translate(0, 0)}
                }

                .triangle-float3 {
                    animation: float3 6s infinite;
                }
            </style></defs></svg>