<svg id="visual" viewBox="0 0 900 100" width="900" height="100" xmlns="http://www.w3.org/2000/svg" xmlns:xlink="http://www.w3.org/1999/xlink" version="1.1"><rect x="0" y="0" width="900" height="100" fill="#0b0c10"></rect><path d="M0 66L25 59.3C50 52.7 100 39.3 150 41.8C200 44.3 250 62.7 300 64C350 65.3 400 49.7 450 41C500 32.3 550 30.7 600 39C650 47.3 700 65.7 750 63.2C800 60.7 850 37.3 875 25.7L900 14L900 101L875 101C850 101 800 101 750 101C700 101 650 101 600 101C550 101 500 101 450 101C400 101 350 101 300 101C250 101 200 101 150 101C100 101 50 101 25 101L0 101Z" fill="#1f2833" stroke-linecap="round" stroke-linejoin="miter"></path></svg>