<svg id="visual" viewBox="0 0 960 540" width="960" height="540" xmlns="http://www.w3.org/2000/svg" xmlns:xlink="http://www.w3.org/1999/xlink" version="1.1"><rect width="960" height="540" fill="#0b0c10"></rect><g><g transform="translate(8 487)"><path d="M0 -67.2L58.2 -33.6L58.2 33.6L0 67.2L-58.2 33.6L-58.2 -33.6Z" fill="none" stroke="#297EA6" stroke-width="3"></path></g><g transform="translate(857 293)"><path d="M0 -45L39 -22.5L39 22.5L0 45L-39 22.5L-39 -22.5Z" fill="none" stroke="#297EA6" stroke-width="3"></path></g><g transform="translate(122 2)"><path d="M0 -50L43.3 -25L43.3 25L0 50L-43.3 25L-43.3 -25Z" fill="none" stroke="#297EA6" stroke-width="3"></path></g><g transform="translate(694 495)"><path d="M0 -40L34.6 -20L34.6 20L0 40L-34.6 20L-34.6 -20Z" fill="none" stroke="#297EA6" stroke-width="3"></path></g><g transform="translate(228 436)"><path d="M0 -39L33.8 -19.5L33.8 19.5L0 39L-33.8 19.5L-33.8 -19.5Z" fill="none" stroke="#297EA6" stroke-width="3"></path></g><g transform="translate(442 185)"><path d="M0 -44L38.1 -22L38.1 22L0 44L-38.1 22L-38.1 -22Z" fill="none" stroke="#297EA6" stroke-width="3"></path></g><g transform="translate(222 299)"><path d="M0 -47L40.7 -23.5L40.7 23.5L0 47L-40.7 23.5L-40.7 -23.5Z" fill="none" stroke="#297EA6" stroke-width="3"></path></g></g></svg>