<svg xmlns="http://www.w3.org/2000/svg" version="1.1" xmlns:xlink="http://www.w3.org/1999/xlink" xmlns:svgjs="http://svgjs.dev/svgjs" width="1440" height="600" preserveAspectRatio="none" viewBox="0 0 1440 600"><g mask="url(&quot;#SvgjsMask1008&quot;)" fill="none"><rect width="1440" height="600" x="0" y="0" fill="rgba(11, 12, 16, 1)"></rect><path d="M67.42 554.18L67.42 554.18" stroke="#132e65" stroke-width="1.5"></path><path d="M67.42 554.18L72.2 680.34" stroke="#132e65" stroke-width="1.5"></path><path d="M67.42 554.18L247.03 652.06" stroke="#132e65" stroke-width="1.5"></path><path d="M67.42 554.18L261.73 391.28" stroke="#132e65" stroke-width="1.5"></path><path d="M72.2 680.34L72.2 680.34" stroke="#132e65" stroke-width="1.5"></path><path d="M72.2 680.34L247.03 652.06" stroke="#132e65" stroke-width="1.5"></path><path d="M72.2 680.34L373.48 656.84" stroke="#132e65" stroke-width="1.5"></path><path d="M72.2 680.34L351.63 538.37" stroke="#132e65" stroke-width="1.5"></path><path d="M261.73 391.28L261.73 391.28" stroke="#132e65" stroke-width="1.5"></path><path d="M261.73 391.28L387.23 342" stroke="#132e65" stroke-width="1.5"></path><path d="M261.73 391.28L351.63 538.37" stroke="#132e65" stroke-width="1.5"></path><path d="M261.73 391.28L247.03 652.06" stroke="#132e65" stroke-width="1.5"></path><path d="M247.03 652.06L247.03 652.06" stroke="#132e65" stroke-width="1.5"></path><path d="M247.03 652.06L373.48 656.84" stroke="#132e65" stroke-width="1.5"></path><path d="M247.03 652.06L351.63 538.37" stroke="#132e65" stroke-width="1.5"></path><path d="M247.03 652.06L538.2 639.66" stroke="#132e65" stroke-width="1.5"></path><path d="M387.23 342L387.23 342" stroke="#132e65" stroke-width="1.5"></path><path d="M387.23 342L549.41 392.63" stroke="#132e65" stroke-width="1.5"></path><path d="M387.23 342L351.63 538.37" stroke="#132e65" stroke-width="1.5"></path><path d="M387.23 342L540.31 523.33" stroke="#132e65" stroke-width="1.5"></path><path d="M387.23 342L650.66 367.37" stroke="#132e65" stroke-width="1.5"></path><path d="M351.63 538.37L351.63 538.37" stroke="#132e65" stroke-width="1.5"></path><path d="M351.63 538.37L373.48 656.84" stroke="#132e65" stroke-width="1.5"></path><path d="M351.63 538.37L540.31 523.33" stroke="#132e65" stroke-width="1.5"></path><path d="M373.48 656.84L373.48 656.84" stroke="#132e65" stroke-width="1.5"></path><path d="M373.48 656.84L538.2 639.66" stroke="#132e65" stroke-width="1.5"></path><path d="M549.41 392.63L549.41 392.63" stroke="#132e65" stroke-width="1.5"></path><path d="M549.41 392.63L650.66 367.37" stroke="#132e65" stroke-width="1.5"></path><path d="M549.41 392.63L540.31 523.33" stroke="#132e65" stroke-width="1.5"></path><path d="M549.41 392.63L701.82 560.63" stroke="#132e65" stroke-width="1.5"></path><path d="M549.41 392.63L351.63 538.37" stroke="#132e65" stroke-width="1.5"></path><path d="M549.41 392.63L538.2 639.66" stroke="#132e65" stroke-width="1.5"></path><path d="M540.31 523.33L540.31 523.33" stroke="#132e65" stroke-width="1.5"></path><path d="M540.31 523.33L538.2 639.66" stroke="#132e65" stroke-width="1.5"></path><path d="M538.2 639.66L538.2 639.66" stroke="#132e65" stroke-width="1.5"></path><path d="M538.2 639.66L652.06 641.07" stroke="#132e65" stroke-width="1.5"></path><path d="M538.2 639.66L701.82 560.63" stroke="#132e65" stroke-width="1.5"></path><path d="M538.2 639.66L351.63 538.37" stroke="#132e65" stroke-width="1.5"></path><path d="M650.66 367.37L650.66 367.37" stroke="#132e65" stroke-width="1.5"></path><path d="M650.66 367.37L540.31 523.33" stroke="#132e65" stroke-width="1.5"></path><path d="M650.66 367.37L701.82 560.63" stroke="#132e65" stroke-width="1.5"></path><path d="M650.66 367.37L812.49 249.83" stroke="#132e65" stroke-width="1.5"></path><path d="M701.82 560.63L701.82 560.63" stroke="#132e65" stroke-width="1.5"></path><path d="M701.82 560.63L652.06 641.07" stroke="#132e65" stroke-width="1.5"></path><path d="M701.82 560.63L845.83 550.64" stroke="#132e65" stroke-width="1.5"></path><path d="M701.82 560.63L540.31 523.33" stroke="#132e65" stroke-width="1.5"></path><path d="M701.82 560.63L851.7 645.82" stroke="#132e65" stroke-width="1.5"></path><path d="M652.06 641.07L652.06 641.07" stroke="#132e65" stroke-width="1.5"></path><path d="M652.06 641.07L540.31 523.33" stroke="#132e65" stroke-width="1.5"></path><path d="M812.49 249.83L812.49 249.83" stroke="#132e65" stroke-width="1.5"></path><path d="M812.49 249.83L974.6 209.8" stroke="#132e65" stroke-width="1.5"></path><path d="M812.49 249.83L943.21 378.35" stroke="#132e65" stroke-width="1.5"></path><path d="M812.49 249.83L971.4 71.02" stroke="#132e65" stroke-width="1.5"></path><path d="M812.49 249.83L549.41 392.63" stroke="#132e65" stroke-width="1.5"></path><path d="M812.49 249.83L845.83 550.64" stroke="#132e65" stroke-width="1.5"></path><path d="M845.83 550.64L845.83 550.64" stroke="#132e65" stroke-width="1.5"></path><path d="M845.83 550.64L851.7 645.82" stroke="#132e65" stroke-width="1.5"></path><path d="M845.83 550.64L945.89 556.38" stroke="#132e65" stroke-width="1.5"></path><path d="M845.83 550.64L972.59 641.2" stroke="#132e65" stroke-width="1.5"></path><path d="M845.83 550.64L943.21 378.35" stroke="#132e65" stroke-width="1.5"></path><path d="M845.83 550.64L652.06 641.07" stroke="#132e65" stroke-width="1.5"></path><path d="M851.7 645.82L851.7 645.82" stroke="#132e65" stroke-width="1.5"></path><path d="M851.7 645.82L972.59 641.2" stroke="#132e65" stroke-width="1.5"></path><path d="M851.7 645.82L945.89 556.38" stroke="#132e65" stroke-width="1.5"></path><path d="M971.4 71.02L971.4 71.02" stroke="#132e65" stroke-width="1.5"></path><path d="M971.4 71.02L1108.23 76.83" stroke="#132e65" stroke-width="1.5"></path><path d="M971.4 71.02L974.6 209.8" stroke="#132e65" stroke-width="1.5"></path><path d="M974.6 209.8L974.6 209.8" stroke="#132e65" stroke-width="1.5"></path><path d="M974.6 209.8L943.21 378.35" stroke="#132e65" stroke-width="1.5"></path><path d="M974.6 209.8L1159.45 200.68" stroke="#132e65" stroke-width="1.5"></path><path d="M974.6 209.8L1108.23 76.83" stroke="#132e65" stroke-width="1.5"></path><path d="M943.21 378.35L943.21 378.35" stroke="#132e65" stroke-width="1.5"></path><path d="M943.21 378.35L945.89 556.38" stroke="#132e65" stroke-width="1.5"></path><path d="M943.21 378.35L1158.69 369.93" stroke="#132e65" stroke-width="1.5"></path><path d="M945.89 556.38L945.89 556.38" stroke="#132e65" stroke-width="1.5"></path><path d="M945.89 556.38L972.59 641.2" stroke="#132e65" stroke-width="1.5"></path><path d="M972.59 641.2L972.59 641.2" stroke="#132e65" stroke-width="1.5"></path><path d="M972.59 641.2L1128.38 712.37" stroke="#132e65" stroke-width="1.5"></path><path d="M972.59 641.2L1132.56 503.45" stroke="#132e65" stroke-width="1.5"></path><path d="M1120.43 -80.83L1120.43 -80.83" stroke="#132e65" stroke-width="1.5"></path><path d="M1120.43 -80.83L1108.23 76.83" stroke="#132e65" stroke-width="1.5"></path><path d="M1120.43 -80.83L1279.25 -61.46" stroke="#132e65" stroke-width="1.5"></path><path d="M1108.23 76.83L1108.23 76.83" stroke="#132e65" stroke-width="1.5"></path><path d="M1108.23 76.83L1159.45 200.68" stroke="#132e65" stroke-width="1.5"></path><path d="M1159.45 200.68L1159.45 200.68" stroke="#132e65" stroke-width="1.5"></path><path d="M1159.45 200.68L1311.02 260.12" stroke="#132e65" stroke-width="1.5"></path><path d="M1159.45 200.68L1158.69 369.93" stroke="#132e65" stroke-width="1.5"></path><path d="M1159.45 200.68L1275.42 74.66" stroke="#132e65" stroke-width="1.5"></path><path d="M1159.45 200.68L971.4 71.02" stroke="#132e65" stroke-width="1.5"></path><path d="M1158.69 369.93L1158.69 369.93" stroke="#132e65" stroke-width="1.5"></path><path d="M1158.69 369.93L1132.56 503.45" stroke="#132e65" stroke-width="1.5"></path><path d="M1158.69 369.93L1311.02 260.12" stroke="#132e65" stroke-width="1.5"></path><path d="M1132.56 503.45L1132.56 503.45" stroke="#132e65" stroke-width="1.5"></path><path d="M1132.56 503.45L1283.24 524.79" stroke="#132e65" stroke-width="1.5"></path><path d="M1132.56 503.45L945.89 556.38" stroke="#132e65" stroke-width="1.5"></path><path d="M1128.38 712.37L1128.38 712.37" stroke="#132e65" stroke-width="1.5"></path><path d="M1128.38 712.37L1272.96 682.28" stroke="#132e65" stroke-width="1.5"></path><path d="M1279.25 -61.46L1279.25 -61.46" stroke="#132e65" stroke-width="1.5"></path><path d="M1279.25 -61.46L1275.42 74.66" stroke="#132e65" stroke-width="1.5"></path><path d="M1279.25 -61.46L1428.35 -59.91" stroke="#132e65" stroke-width="1.5"></path><path d="M1279.25 -61.46L1457.79 58.88" stroke="#132e65" stroke-width="1.5"></path><path d="M1279.25 -61.46L1108.23 76.83" stroke="#132e65" stroke-width="1.5"></path><path d="M1279.25 -61.46L1159.45 200.68" stroke="#132e65" stroke-width="1.5"></path><path d="M1275.42 74.66L1275.42 74.66" stroke="#132e65" stroke-width="1.5"></path><path d="M1275.42 74.66L1108.23 76.83" stroke="#132e65" stroke-width="1.5"></path><path d="M1311.02 260.12L1311.02 260.12" stroke="#132e65" stroke-width="1.5"></path><path d="M1311.02 260.12L1404.5 201.81" stroke="#132e65" stroke-width="1.5"></path><path d="M1283.24 524.79L1283.24 524.79" stroke="#132e65" stroke-width="1.5"></path><path d="M1283.24 524.79L1433.67 513.58" stroke="#132e65" stroke-width="1.5"></path><path d="M1283.24 524.79L1392.29 638.05" stroke="#132e65" stroke-width="1.5"></path><path d="M1283.24 524.79L1272.96 682.28" stroke="#132e65" stroke-width="1.5"></path><path d="M1272.96 682.28L1272.96 682.28" stroke="#132e65" stroke-width="1.5"></path><path d="M1272.96 682.28L1392.29 638.05" stroke="#132e65" stroke-width="1.5"></path><path d="M1428.35 -59.91L1428.35 -59.91" stroke="#132e65" stroke-width="1.5"></path><path d="M1428.35 -59.91L1457.79 58.88" stroke="#132e65" stroke-width="1.5"></path><path d="M1457.79 58.88L1457.79 58.88" stroke="#132e65" stroke-width="1.5"></path><path d="M1457.79 58.88L1606.46 55.26" stroke="#132e65" stroke-width="1.5"></path><path d="M1404.5 201.81L1404.5 201.81" stroke="#132e65" stroke-width="1.5"></path><path d="M1404.5 201.81L1457.79 58.88" stroke="#132e65" stroke-width="1.5"></path><path d="M1404.5 201.81L1431.7 355.74" stroke="#132e65" stroke-width="1.5"></path><path d="M1431.7 355.74L1431.7 355.74" stroke="#132e65" stroke-width="1.5"></path><path d="M1431.7 355.74L1311.02 260.12" stroke="#132e65" stroke-width="1.5"></path><path d="M1431.7 355.74L1433.67 513.58" stroke="#132e65" stroke-width="1.5"></path><path d="M1431.7 355.74L1561.37 238.2" stroke="#132e65" stroke-width="1.5"></path><path d="M1433.67 513.58L1433.67 513.58" stroke="#132e65" stroke-width="1.5"></path><path d="M1433.67 513.58L1392.29 638.05" stroke="#132e65" stroke-width="1.5"></path><path d="M1433.67 513.58L1580.88 492.36" stroke="#132e65" stroke-width="1.5"></path><path d="M1433.67 513.58L1272.96 682.28" stroke="#132e65" stroke-width="1.5"></path><path d="M1392.29 638.05L1392.29 638.05" stroke="#132e65" stroke-width="1.5"></path><path d="M1606.46 55.26L1606.46 55.26" stroke="#132e65" stroke-width="1.5"></path><path d="M1606.46 55.26L1561.37 238.2" stroke="#132e65" stroke-width="1.5"></path><path d="M1606.46 55.26L1428.35 -59.91" stroke="#132e65" stroke-width="1.5"></path><path d="M1606.46 55.26L1404.5 201.81" stroke="#132e65" stroke-width="1.5"></path><path d="M1606.46 55.26L1275.42 74.66" stroke="#132e65" stroke-width="1.5"></path><path d="M1606.46 55.26L1279.25 -61.46" stroke="#132e65" stroke-width="1.5"></path><path d="M1561.37 238.2L1561.37 238.2" stroke="#132e65" stroke-width="1.5"></path><path d="M1561.37 238.2L1404.5 201.81" stroke="#132e65" stroke-width="1.5"></path><path d="M1580.88 492.36L1580.88 492.36" stroke="#132e65" stroke-width="1.5"></path><path d="M1580.88 492.36L1431.7 355.74" stroke="#132e65" stroke-width="1.5"></path><path d="M1580.88 492.36L1392.29 638.05" stroke="#132e65" stroke-width="1.5"></path><circle r="5" cx="67.42" cy="554.18" fill="#132e65"></circle><circle r="5" cx="72.2" cy="680.34" fill="#132e65"></circle><circle r="5" cx="261.73" cy="391.28" fill="#132e65"></circle><circle r="5" cx="247.03" cy="652.06" fill="#132e65"></circle><circle r="5" cx="387.23" cy="342" fill="#132e65"></circle><circle r="5" cx="351.63" cy="538.37" fill="#132e65"></circle><circle r="5" cx="373.48" cy="656.84" fill="#132e65"></circle><circle r="5" cx="549.41" cy="392.63" fill="#132e65"></circle><circle r="5" cx="540.31" cy="523.33" fill="#132e65"></circle><circle r="5" cx="538.2" cy="639.66" fill="#132e65"></circle><circle r="5" cx="650.66" cy="367.37" fill="#132e65"></circle><circle r="5" cx="701.82" cy="560.63" fill="#132e65"></circle><circle r="5" cx="652.06" cy="641.07" fill="#132e65"></circle><circle r="5" cx="812.49" cy="249.83" fill="#132e65"></circle><circle r="5" cx="845.83" cy="550.64" fill="#132e65"></circle><circle r="5" cx="851.7" cy="645.82" fill="#132e65"></circle><circle r="5" cx="971.4" cy="71.02" fill="#132e65"></circle><circle r="5" cx="974.6" cy="209.8" fill="#132e65"></circle><circle r="5" cx="943.21" cy="378.35" fill="#132e65"></circle><circle r="5" cx="945.89" cy="556.38" fill="#132e65"></circle><circle r="5" cx="972.59" cy="641.2" fill="#132e65"></circle><circle r="5" cx="1120.43" cy="-80.83" fill="#132e65"></circle><circle r="5" cx="1108.23" cy="76.83" fill="#132e65"></circle><circle r="5" cx="1159.45" cy="200.68" fill="#132e65"></circle><circle r="5" cx="1158.69" cy="369.93" fill="#132e65"></circle><circle r="5" cx="1132.56" cy="503.45" fill="#132e65"></circle><circle r="5" cx="1128.38" cy="712.37" fill="#132e65"></circle><circle r="5" cx="1279.25" cy="-61.46" fill="#132e65"></circle><circle r="5" cx="1275.42" cy="74.66" fill="#132e65"></circle><circle r="5" cx="1311.02" cy="260.12" fill="#132e65"></circle><circle r="5" cx="1283.24" cy="524.79" fill="#132e65"></circle><circle r="5" cx="1272.96" cy="682.28" fill="#132e65"></circle><circle r="5" cx="1428.35" cy="-59.91" fill="#132e65"></circle><circle r="5" cx="1457.79" cy="58.88" fill="#132e65"></circle><circle r="5" cx="1404.5" cy="201.81" fill="#132e65"></circle><circle r="5" cx="1431.7" cy="355.74" fill="#132e65"></circle><circle r="5" cx="1433.67" cy="513.58" fill="#132e65"></circle><circle r="5" cx="1392.29" cy="638.05" fill="#132e65"></circle><circle r="5" cx="1606.46" cy="55.26" fill="#132e65"></circle><circle r="5" cx="1561.37" cy="238.2" fill="#132e65"></circle><circle r="5" cx="1580.88" cy="492.36" fill="#132e65"></circle><path d="M201.15 524.38L201.15 524.38" stroke="hsl(228.5, 77.2%, 51.5%)" stroke-width="1.5"></path><path d="M201.15 524.38L92.13 494.34" stroke="hsl(228.5, 77.2%, 51.5%)" stroke-width="1.5"></path><path d="M201.15 524.38L354.33 544.06" stroke="hsl(228.5, 77.2%, 51.5%)" stroke-width="1.5"></path><path d="M201.15 524.38L235.68 698.25" stroke="hsl(228.5, 77.2%, 51.5%)" stroke-width="1.5"></path><path d="M201.15 524.38L83.18 687.1" stroke="hsl(228.5, 77.2%, 51.5%)" stroke-width="1.5"></path><path d="M201.15 524.38L346.12 706.09" stroke="hsl(228.5, 77.2%, 51.5%)" stroke-width="1.5"></path><path d="M201.15 524.38L-51.78 650.85" stroke="hsl(228.5, 77.2%, 51.5%)" stroke-width="1.5"></path><path d="M346.12 706.09L346.12 706.09" stroke="hsl(228.5, 77.2%, 51.5%)" stroke-width="1.5"></path><path d="M346.12 706.09L235.68 698.25" stroke="hsl(228.5, 77.2%, 51.5%)" stroke-width="1.5"></path><path d="M346.12 706.09L354.33 544.06" stroke="hsl(228.5, 77.2%, 51.5%)" stroke-width="1.5"></path><path d="M346.12 706.09L533.2 659.06" stroke="hsl(228.5, 77.2%, 51.5%)" stroke-width="1.5"></path><path d="M346.12 706.09L541.73 534.82" stroke="hsl(228.5, 77.2%, 51.5%)" stroke-width="1.5"></path><path d="M346.12 706.09L83.18 687.1" stroke="hsl(228.5, 77.2%, 51.5%)" stroke-width="1.5"></path><path d="M1414.2 554.7L1414.2 554.7" stroke="hsl(228.5, 77.2%, 51.5%)" stroke-width="1.5"></path><path d="M1414.2 554.7L1401.55 695" stroke="hsl(228.5, 77.2%, 51.5%)" stroke-width="1.5"></path><path d="M1414.2 554.7L1299.79 651.22" stroke="hsl(228.5, 77.2%, 51.5%)" stroke-width="1.5"></path><path d="M1414.2 554.7L1574.83 524.86" stroke="hsl(228.5, 77.2%, 51.5%)" stroke-width="1.5"></path><path d="M1414.2 554.7L1560.61 651.74" stroke="hsl(228.5, 77.2%, 51.5%)" stroke-width="1.5"></path><path d="M1414.2 554.7L1238.03 528.94" stroke="hsl(228.5, 77.2%, 51.5%)" stroke-width="1.5"></path><path d="M1591.09 381.36L1591.09 381.36" stroke="hsl(228.5, 77.2%, 51.5%)" stroke-width="1.5"></path><path d="M1591.09 381.36L1574.83 524.86" stroke="hsl(228.5, 77.2%, 51.5%)" stroke-width="1.5"></path><path d="M1591.09 381.36L1596.8 200.92" stroke="hsl(228.5, 77.2%, 51.5%)" stroke-width="1.5"></path><path d="M1591.09 381.36L1409.27 344.43" stroke="hsl(228.5, 77.2%, 51.5%)" stroke-width="1.5"></path><path d="M1591.09 381.36L1414.2 554.7" stroke="hsl(228.5, 77.2%, 51.5%)" stroke-width="1.5"></path><path d="M-89.69 558.24L-89.69 558.24" stroke="hsl(228.5, 77.2%, 51.5%)" stroke-width="1.5"></path><path d="M-89.69 558.24L-51.78 650.85" stroke="hsl(228.5, 77.2%, 51.5%)" stroke-width="1.5"></path><path d="M-89.69 558.24L92.13 494.34" stroke="hsl(228.5, 77.2%, 51.5%)" stroke-width="1.5"></path><path d="M-89.69 558.24L83.18 687.1" stroke="hsl(228.5, 77.2%, 51.5%)" stroke-width="1.5"></path><path d="M-89.69 558.24L201.15 524.38" stroke="hsl(228.5, 77.2%, 51.5%)" stroke-width="1.5"></path><path d="M-51.78 650.85L-51.78 650.85" stroke="hsl(228.5, 77.2%, 51.5%)" stroke-width="1.5"></path><path d="M-51.78 650.85L83.18 687.1" stroke="hsl(228.5, 77.2%, 51.5%)" stroke-width="1.5"></path><path d="M-51.78 650.85L92.13 494.34" stroke="hsl(228.5, 77.2%, 51.5%)" stroke-width="1.5"></path><path d="M92.13 494.34L92.13 494.34" stroke="hsl(228.5, 77.2%, 51.5%)" stroke-width="1.5"></path><path d="M92.13 494.34L83.18 687.1" stroke="hsl(228.5, 77.2%, 51.5%)" stroke-width="1.5"></path><path d="M92.13 494.34L235.68 698.25" stroke="hsl(228.5, 77.2%, 51.5%)" stroke-width="1.5"></path><path d="M92.13 494.34L354.33 544.06" stroke="hsl(228.5, 77.2%, 51.5%)" stroke-width="1.5"></path><path d="M83.18 687.1L83.18 687.1" stroke="hsl(228.5, 77.2%, 51.5%)" stroke-width="1.5"></path><path d="M83.18 687.1L235.68 698.25" stroke="hsl(228.5, 77.2%, 51.5%)" stroke-width="1.5"></path><path d="M235.68 698.25L235.68 698.25" stroke="hsl(228.5, 77.2%, 51.5%)" stroke-width="1.5"></path><path d="M235.68 698.25L354.33 544.06" stroke="hsl(228.5, 77.2%, 51.5%)" stroke-width="1.5"></path><path d="M235.68 698.25L-51.78 650.85" stroke="hsl(228.5, 77.2%, 51.5%)" stroke-width="1.5"></path><path d="M354.33 544.06L354.33 544.06" stroke="hsl(228.5, 77.2%, 51.5%)" stroke-width="1.5"></path><path d="M354.33 544.06L541.73 534.82" stroke="hsl(228.5, 77.2%, 51.5%)" stroke-width="1.5"></path><path d="M541.73 534.82L541.73 534.82" stroke="hsl(228.5, 77.2%, 51.5%)" stroke-width="1.5"></path><path d="M541.73 534.82L533.2 659.06" stroke="hsl(228.5, 77.2%, 51.5%)" stroke-width="1.5"></path><path d="M541.73 534.82L682.27 509.9" stroke="hsl(228.5, 77.2%, 51.5%)" stroke-width="1.5"></path><path d="M533.2 659.06L533.2 659.06" stroke="hsl(228.5, 77.2%, 51.5%)" stroke-width="1.5"></path><path d="M533.2 659.06L664.45 648.78" stroke="hsl(228.5, 77.2%, 51.5%)" stroke-width="1.5"></path><path d="M678.85 395.77L678.85 395.77" stroke="hsl(228.5, 77.2%, 51.5%)" stroke-width="1.5"></path><path d="M678.85 395.77L682.27 509.9" stroke="hsl(228.5, 77.2%, 51.5%)" stroke-width="1.5"></path><path d="M678.85 395.77L807.67 351.63" stroke="hsl(228.5, 77.2%, 51.5%)" stroke-width="1.5"></path><path d="M678.85 395.77L541.73 534.82" stroke="hsl(228.5, 77.2%, 51.5%)" stroke-width="1.5"></path><path d="M678.85 395.77L828.44 539.59" stroke="hsl(228.5, 77.2%, 51.5%)" stroke-width="1.5"></path><path d="M678.85 395.77L664.45 648.78" stroke="hsl(228.5, 77.2%, 51.5%)" stroke-width="1.5"></path><path d="M682.27 509.9L682.27 509.9" stroke="hsl(228.5, 77.2%, 51.5%)" stroke-width="1.5"></path><path d="M682.27 509.9L664.45 648.78" stroke="hsl(228.5, 77.2%, 51.5%)" stroke-width="1.5"></path><path d="M682.27 509.9L828.44 539.59" stroke="hsl(228.5, 77.2%, 51.5%)" stroke-width="1.5"></path><path d="M682.27 509.9L807.67 351.63" stroke="hsl(228.5, 77.2%, 51.5%)" stroke-width="1.5"></path><path d="M682.27 509.9L533.2 659.06" stroke="hsl(228.5, 77.2%, 51.5%)" stroke-width="1.5"></path><path d="M664.45 648.78L664.45 648.78" stroke="hsl(228.5, 77.2%, 51.5%)" stroke-width="1.5"></path><path d="M664.45 648.78L541.73 534.82" stroke="hsl(228.5, 77.2%, 51.5%)" stroke-width="1.5"></path><path d="M807.67 351.63L807.67 351.63" stroke="hsl(228.5, 77.2%, 51.5%)" stroke-width="1.5"></path><path d="M807.67 351.63L828.44 539.59" stroke="hsl(228.5, 77.2%, 51.5%)" stroke-width="1.5"></path><path d="M807.67 351.63L988.7 407.59" stroke="hsl(228.5, 77.2%, 51.5%)" stroke-width="1.5"></path><path d="M828.44 539.59L828.44 539.59" stroke="hsl(228.5, 77.2%, 51.5%)" stroke-width="1.5"></path><path d="M828.44 539.59L1003.19 542.94" stroke="hsl(228.5, 77.2%, 51.5%)" stroke-width="1.5"></path><path d="M828.44 539.59L664.45 648.78" stroke="hsl(228.5, 77.2%, 51.5%)" stroke-width="1.5"></path><path d="M988.7 407.59L988.7 407.59" stroke="hsl(228.5, 77.2%, 51.5%)" stroke-width="1.5"></path><path d="M988.7 407.59L1003.19 542.94" stroke="hsl(228.5, 77.2%, 51.5%)" stroke-width="1.5"></path><path d="M988.7 407.59L1089.63 517.4" stroke="hsl(228.5, 77.2%, 51.5%)" stroke-width="1.5"></path><path d="M988.7 407.59L1161.46 353.06" stroke="hsl(228.5, 77.2%, 51.5%)" stroke-width="1.5"></path><path d="M1003.19 542.94L1003.19 542.94" stroke="hsl(228.5, 77.2%, 51.5%)" stroke-width="1.5"></path><path d="M1003.19 542.94L1089.63 517.4" stroke="hsl(228.5, 77.2%, 51.5%)" stroke-width="1.5"></path><path d="M1003.19 542.94L1005.32 674.66" stroke="hsl(228.5, 77.2%, 51.5%)" stroke-width="1.5"></path><path d="M1003.19 542.94L1109.84 637.93" stroke="hsl(228.5, 77.2%, 51.5%)" stroke-width="1.5"></path><path d="M1003.19 542.94L1238.03 528.94" stroke="hsl(228.5, 77.2%, 51.5%)" stroke-width="1.5"></path><path d="M1005.32 674.66L1005.32 674.66" stroke="hsl(228.5, 77.2%, 51.5%)" stroke-width="1.5"></path><path d="M1005.32 674.66L1109.84 637.93" stroke="hsl(228.5, 77.2%, 51.5%)" stroke-width="1.5"></path><path d="M1005.32 674.66L1089.63 517.4" stroke="hsl(228.5, 77.2%, 51.5%)" stroke-width="1.5"></path><path d="M1005.32 674.66L828.44 539.59" stroke="hsl(228.5, 77.2%, 51.5%)" stroke-width="1.5"></path><path d="M1005.32 674.66L988.7 407.59" stroke="hsl(228.5, 77.2%, 51.5%)" stroke-width="1.5"></path><path d="M1005.32 674.66L1238.03 528.94" stroke="hsl(228.5, 77.2%, 51.5%)" stroke-width="1.5"></path><path d="M1140.92 250.49L1140.92 250.49" stroke="hsl(228.5, 77.2%, 51.5%)" stroke-width="1.5"></path><path d="M1140.92 250.49L1161.46 353.06" stroke="hsl(228.5, 77.2%, 51.5%)" stroke-width="1.5"></path><path d="M1140.92 250.49L1299 232.33" stroke="hsl(228.5, 77.2%, 51.5%)" stroke-width="1.5"></path><path d="M1140.92 250.49L1297.65 379.91" stroke="hsl(228.5, 77.2%, 51.5%)" stroke-width="1.5"></path><path d="M1161.46 353.06L1161.46 353.06" stroke="hsl(228.5, 77.2%, 51.5%)" stroke-width="1.5"></path><path d="M1161.46 353.06L1297.65 379.91" stroke="hsl(228.5, 77.2%, 51.5%)" stroke-width="1.5"></path><path d="M1161.46 353.06L1089.63 517.4" stroke="hsl(228.5, 77.2%, 51.5%)" stroke-width="1.5"></path><path d="M1089.63 517.4L1089.63 517.4" stroke="hsl(228.5, 77.2%, 51.5%)" stroke-width="1.5"></path><path d="M1089.63 517.4L1109.84 637.93" stroke="hsl(228.5, 77.2%, 51.5%)" stroke-width="1.5"></path><path d="M1109.84 637.93L1109.84 637.93" stroke="hsl(228.5, 77.2%, 51.5%)" stroke-width="1.5"></path><path d="M1109.84 637.93L1238.03 528.94" stroke="hsl(228.5, 77.2%, 51.5%)" stroke-width="1.5"></path><path d="M1109.84 637.93L1299.79 651.22" stroke="hsl(228.5, 77.2%, 51.5%)" stroke-width="1.5"></path><path d="M1310.53 60.65L1310.53 60.65" stroke="hsl(228.5, 77.2%, 51.5%)" stroke-width="1.5"></path><path d="M1310.53 60.65L1395.98 41.97" stroke="hsl(228.5, 77.2%, 51.5%)" stroke-width="1.5"></path><path d="M1310.53 60.65L1299 232.33" stroke="hsl(228.5, 77.2%, 51.5%)" stroke-width="1.5"></path><path d="M1299 232.33L1299 232.33" stroke="hsl(228.5, 77.2%, 51.5%)" stroke-width="1.5"></path><path d="M1299 232.33L1297.65 379.91" stroke="hsl(228.5, 77.2%, 51.5%)" stroke-width="1.5"></path><path d="M1299 232.33L1409.27 344.43" stroke="hsl(228.5, 77.2%, 51.5%)" stroke-width="1.5"></path><path d="M1297.65 379.91L1297.65 379.91" stroke="hsl(228.5, 77.2%, 51.5%)" stroke-width="1.5"></path><path d="M1297.65 379.91L1409.27 344.43" stroke="hsl(228.5, 77.2%, 51.5%)" stroke-width="1.5"></path><path d="M1297.65 379.91L1238.03 528.94" stroke="hsl(228.5, 77.2%, 51.5%)" stroke-width="1.5"></path><path d="M1238.03 528.94L1238.03 528.94" stroke="hsl(228.5, 77.2%, 51.5%)" stroke-width="1.5"></path><path d="M1238.03 528.94L1299.79 651.22" stroke="hsl(228.5, 77.2%, 51.5%)" stroke-width="1.5"></path><path d="M1238.03 528.94L1089.63 517.4" stroke="hsl(228.5, 77.2%, 51.5%)" stroke-width="1.5"></path><path d="M1299.79 651.22L1299.79 651.22" stroke="hsl(228.5, 77.2%, 51.5%)" stroke-width="1.5"></path><path d="M1299.79 651.22L1401.55 695" stroke="hsl(228.5, 77.2%, 51.5%)" stroke-width="1.5"></path><path d="M1299.79 651.22L1089.63 517.4" stroke="hsl(228.5, 77.2%, 51.5%)" stroke-width="1.5"></path><path d="M1457.83 -92.22L1457.83 -92.22" stroke="hsl(228.5, 77.2%, 51.5%)" stroke-width="1.5"></path><path d="M1457.83 -92.22L1563.65 -93.77" stroke="hsl(228.5, 77.2%, 51.5%)" stroke-width="1.5"></path><path d="M1457.83 -92.22L1395.98 41.97" stroke="hsl(228.5, 77.2%, 51.5%)" stroke-width="1.5"></path><path d="M1457.83 -92.22L1605.4 59.02" stroke="hsl(228.5, 77.2%, 51.5%)" stroke-width="1.5"></path><path d="M1457.83 -92.22L1310.53 60.65" stroke="hsl(228.5, 77.2%, 51.5%)" stroke-width="1.5"></path><path d="M1457.83 -92.22L1596.8 200.92" stroke="hsl(228.5, 77.2%, 51.5%)" stroke-width="1.5"></path><path d="M1395.98 41.97L1395.98 41.97" stroke="hsl(228.5, 77.2%, 51.5%)" stroke-width="1.5"></path><path d="M1395.98 41.97L1605.4 59.02" stroke="hsl(228.5, 77.2%, 51.5%)" stroke-width="1.5"></path><path d="M1395.98 41.97L1299 232.33" stroke="hsl(228.5, 77.2%, 51.5%)" stroke-width="1.5"></path><path d="M1409.27 344.43L1409.27 344.43" stroke="hsl(228.5, 77.2%, 51.5%)" stroke-width="1.5"></path><path d="M1409.27 344.43L1414.2 554.7" stroke="hsl(228.5, 77.2%, 51.5%)" stroke-width="1.5"></path><path d="M1409.27 344.43L1596.8 200.92" stroke="hsl(228.5, 77.2%, 51.5%)" stroke-width="1.5"></path><path d="M1401.55 695L1401.55 695" stroke="hsl(228.5, 77.2%, 51.5%)" stroke-width="1.5"></path><path d="M1401.55 695L1560.61 651.74" stroke="hsl(228.5, 77.2%, 51.5%)" stroke-width="1.5"></path><path d="M1401.55 695L1238.03 528.94" stroke="hsl(228.5, 77.2%, 51.5%)" stroke-width="1.5"></path><path d="M1401.55 695L1574.83 524.86" stroke="hsl(228.5, 77.2%, 51.5%)" stroke-width="1.5"></path><path d="M1401.55 695L1109.84 637.93" stroke="hsl(228.5, 77.2%, 51.5%)" stroke-width="1.5"></path><path d="M1563.65 -93.77L1563.65 -93.77" stroke="hsl(228.5, 77.2%, 51.5%)" stroke-width="1.5"></path><path d="M1563.65 -93.77L1605.4 59.02" stroke="hsl(228.5, 77.2%, 51.5%)" stroke-width="1.5"></path><path d="M1605.4 59.02L1605.4 59.02" stroke="hsl(228.5, 77.2%, 51.5%)" stroke-width="1.5"></path><path d="M1605.4 59.02L1596.8 200.92" stroke="hsl(228.5, 77.2%, 51.5%)" stroke-width="1.5"></path><path d="M1596.8 200.92L1596.8 200.92" stroke="hsl(228.5, 77.2%, 51.5%)" stroke-width="1.5"></path><path d="M1596.8 200.92L1395.98 41.97" stroke="hsl(228.5, 77.2%, 51.5%)" stroke-width="1.5"></path><path d="M1596.8 200.92L1563.65 -93.77" stroke="hsl(228.5, 77.2%, 51.5%)" stroke-width="1.5"></path><path d="M1574.83 524.86L1574.83 524.86" stroke="hsl(228.5, 77.2%, 51.5%)" stroke-width="1.5"></path><path d="M1574.83 524.86L1560.61 651.74" stroke="hsl(228.5, 77.2%, 51.5%)" stroke-width="1.5"></path><path d="M1560.61 651.74L1560.61 651.74" stroke="hsl(228.5, 77.2%, 51.5%)" stroke-width="1.5"></path><circle r="25" cx="201.15" cy="524.38" fill="url(&quot;#SvgjsRadialGradient1009&quot;)"></circle><circle r="25" cx="346.12" cy="706.09" fill="url(&quot;#SvgjsRadialGradient1009&quot;)"></circle><circle r="25" cx="1414.2" cy="554.7" fill="url(&quot;#SvgjsRadialGradient1009&quot;)"></circle><circle r="25" cx="1591.09" cy="381.36" fill="url(&quot;#SvgjsRadialGradient1009&quot;)"></circle><circle r="5" cx="-89.69" cy="558.24" fill="#8b9ad9"></circle><circle r="5" cx="-51.78" cy="650.85" fill="#8b9ad9"></circle><circle r="5" cx="92.13" cy="494.34" fill="#8b9ad9"></circle><circle r="5" cx="83.18" cy="687.1" fill="#8b9ad9"></circle><circle r="5" cx="235.68" cy="698.25" fill="#8b9ad9"></circle><circle r="5" cx="354.33" cy="544.06" fill="#8b9ad9"></circle><circle r="5" cx="541.73" cy="534.82" fill="#8b9ad9"></circle><circle r="5" cx="533.2" cy="659.06" fill="#8b9ad9"></circle><circle r="5" cx="678.85" cy="395.77" fill="#8b9ad9"></circle><circle r="5" cx="682.27" cy="509.9" fill="#8b9ad9"></circle><circle r="5" cx="664.45" cy="648.78" fill="#8b9ad9"></circle><circle r="5" cx="807.67" cy="351.63" fill="#8b9ad9"></circle><circle r="5" cx="828.44" cy="539.59" fill="#8b9ad9"></circle><circle r="5" cx="988.7" cy="407.59" fill="#8b9ad9"></circle><circle r="5" cx="1003.19" cy="542.94" fill="#8b9ad9"></circle><circle r="5" cx="1005.32" cy="674.66" fill="#8b9ad9"></circle><circle r="5" cx="1140.92" cy="250.49" fill="#8b9ad9"></circle><circle r="5" cx="1161.46" cy="353.06" fill="#8b9ad9"></circle><circle r="5" cx="1089.63" cy="517.4" fill="#8b9ad9"></circle><circle r="5" cx="1109.84" cy="637.93" fill="#8b9ad9"></circle><circle r="5" cx="1310.53" cy="60.65" fill="#8b9ad9"></circle><circle r="5" cx="1299" cy="232.33" fill="#8b9ad9"></circle><circle r="5" cx="1297.65" cy="379.91" fill="#8b9ad9"></circle><circle r="5" cx="1238.03" cy="528.94" fill="#8b9ad9"></circle><circle r="5" cx="1299.79" cy="651.22" fill="#8b9ad9"></circle><circle r="5" cx="1457.83" cy="-92.22" fill="#8b9ad9"></circle><circle r="5" cx="1395.98" cy="41.97" fill="#8b9ad9"></circle><circle r="5" cx="1409.27" cy="344.43" fill="#8b9ad9"></circle><circle r="5" cx="1401.55" cy="695" fill="#8b9ad9"></circle><circle r="5" cx="1563.65" cy="-93.77" fill="#8b9ad9"></circle><circle r="5" cx="1605.4" cy="59.02" fill="#8b9ad9"></circle><circle r="5" cx="1596.8" cy="200.92" fill="#8b9ad9"></circle><circle r="5" cx="1574.83" cy="524.86" fill="#8b9ad9"></circle><circle r="5" cx="1560.61" cy="651.74" fill="#8b9ad9"></circle></g><defs><mask id="SvgjsMask1008"><rect width="1440" height="600" fill="#ffffff"></rect></mask><radialGradient id="SvgjsRadialGradient1009"><stop stop-color="#ffffff" offset="0.1"></stop><stop stop-color="#1735b3" offset="0.2"></stop><stop stop-color="rgba(23, 53, 179, 0)" offset="1"></stop></radialGradient></defs></svg>