<svg id="visual" viewBox="0 0 900 100" width="900" height="100" xmlns="http://www.w3.org/2000/svg" xmlns:xlink="http://www.w3.org/1999/xlink" version="1.1"><rect x="0" y="0" width="900" height="100" fill="#0b0c10"></rect><path d="M0 92L25 85.5C50 79 100 66 150 66.7C200 67.3 250 81.7 300 87.8C350 94 400 92 450 78.8C500 65.7 550 41.3 600 38C650 34.7 700 52.3 750 54.2C800 56 850 42 875 35L900 28L900 0L875 0C850 0 800 0 750 0C700 0 650 0 600 0C550 0 500 0 450 0C400 0 350 0 300 0C250 0 200 0 150 0C100 0 50 0 25 0L0 0Z" fill="#1f2833" stroke-linecap="round" stroke-linejoin="miter"></path></svg>