<svg id="visual" viewBox="0 0 900 200" width="900" height="200" xmlns="http://www.w3.org/2000/svg" xmlns:xlink="http://www.w3.org/1999/xlink" version="1.1"><rect x="0" y="0" width="900" height="200" fill="#1f2833"></rect><path d="M0 71L21.5 72.7C43 74.3 86 77.7 128.8 90.2C171.7 102.7 214.3 124.3 257.2 135C300 145.7 343 145.3 385.8 143.8C428.7 142.3 471.3 139.7 514.2 137.8C557 136 600 135 642.8 129.7C685.7 124.3 728.3 114.7 771.2 106.3C814 98 857 91 878.5 87.5L900 84L900 201L878.5 201C857 201 814 201 771.2 201C728.3 201 685.7 201 642.8 201C600 201 557 201 514.2 201C471.3 201 428.7 201 385.8 201C343 201 300 201 257.2 201C214.3 201 171.7 201 128.8 201C86 201 43 201 21.5 201L0 201Z" fill="#0b0c10" stroke-linecap="round" stroke-linejoin="miter"></path></svg>